# xmcd
#
# Track frame offsets:
#	150
#	14535
#	30190
#	43372
#	62510
#	76152
#	91560
#	104650
#	117270
#	132995
#	149275
#	161662
#	177585
#	189977
#	202437
#	215400
#	234427
#	243132
#	256540
#	272927
#
# Disc length: 3840
#
# Revision: 3
# Processed by: cddbd v1.5.1PL0 Copyright (c) Steve Scherf et al.
# Submitted via: CDex 1.40Release
# Normalized: r2:TDELIM( - )
#
DISCID=160efe14
DTITLE=Various Artist - Top of the Hill Bluegrass
DYEAR=1995
DGENRE=Bluegrass
TTITLE0=Peter Rowan and The Nashville Bluegrass Band - That High Lonsome Sound
TTITLE1=Doc Watson - Greenville Trestle High
TTITLE2=Lonesome River Band - Long Gone
TTITLE3=Seldom Scene - Long Black Veil
TTITLE4=Nashville Bluegrass Band - Backtrackin'
TTITLE5=Dan Crary - B&B Rag
TTITLE6=Tom O'Brien - Heartbreak Game
TTITLE7=Laurel Canyon Ramblers - Rambler's Blues
TTITLE8=Front Range - The Hills That I Call Home
TTITLE9=Roland White - Toy Heart
TTITLE10=Chris Thile - Shadow Ridge
TTITLE11=Jerry Douglas with the Brother Boys - Pearlie Mae
TTITLE12=Pete Wernick - An Old Box Of Memories
TTITLE13=Lonesome Standard Time - Lonesome Standard Time
TTITLE14=Sally Van Meter - Weary Lonesome Blues
TTITLE15=New Grass Revival - On The Boulevard
TTITLE16=Gene Wooten - Poison Love
TTITLE17=Doyle Lawson and Quicksilver - Sweet Rosie Jones
TTITLE18=Hot Rize - Walk The Way The Wind Blows
TTITLE19=Ricky Skaggs - Little Cabin On The Hill
EXTD=YEAR: 1995
EXTT0=Peter Rowan and the Nashville Bluegrass Band
EXTT1=Doc Watson
EXTT2=Lonesome River Band
EXTT3=The Seldom Scene
EXTT4=The Nashville Bluegrass Band
EXTT5=Dan Crary
EXTT6=Time O'Brien
EXTT7=Laurel Canyon Ramblers
EXTT8=Front Range
EXTT9=Roland White
EXTT10=Chris Thile
EXTT11=Jerry Douglas with The Brother Boys
EXTT12=Pete Wernick
EXTT13=Lonesome Standard Time
EXTT14=Sally Van Meter
EXTT15=New Grass Revival
EXTT16=The Great Dobro Sessions with Gene Wooten
EXTT17=Doyle Lawson and Quicksilver
EXTT18=Hot Rize
EXTT19=Ricky Skaggs
PLAYORDER=
